# xmcd
# 
# Track frame offsets:
#     233
#     3835
#     14191
#     25757
#     51438
#     63949
#     76419
#     94162
#     101969
#     112280
#     122560
#     135210
#     150188
#     154492
#     171764
# 
# Disc length: 2406
# 
# Revision: 3
# Processed by: cddbd v1.5.2PL0 Copyright (c) Steve Scherf et al.
# Submitted via: fre:ac v1.0.31
# 
DISCID=bf09630f
DTITLE=Marty Stuart - Way Out West
DYEAR=2017
DGENRE=Country
TTITLE0=Desert Prayer (Part I)
TTITLE1=Mojave
TTITLE2=Lost on the Desert
TTITLE3=Way Out West
TTITLE4=El Fantasma Del Toro
TTITLE5=Old Mexico
TTITLE6=Time Don't Wait
TTITLE7=Quicksand
TTITLE8=Air Mail Special
TTITLE9=Torpedo
TTITLE10=Please Don't Say Goodbye
TTITLE11=Whole Lotta Highway (With a Million Miles to Go)
TTITLE12=Desert Prayer (Part II)
TTITLE13=Wait for the Morning
TTITLE14=Way Out West (Reprise)
EXTD=
EXTT0=
EXTT1=
EXTT2=
EXTT3=
EXTT4=
EXTT5=
EXTT6=
EXTT7=
EXTT8=
EXTT9=
EXTT10=
EXTT11=
EXTT12=
EXTT13=
EXTT14=
PLAYORDER=
